<?xml version="1.0" encoding="UTF-8" standalone="no"?>
<svg
   xmlns:dc="http://purl.org/dc/elements/1.1/"
   xmlns:cc="http://creativecommons.org/ns#"
   xmlns:rdf="http://www.w3.org/1999/02/22-rdf-syntax-ns#"
   xmlns:svg="http://www.w3.org/2000/svg"
   xmlns="http://www.w3.org/2000/svg"
   xmlns:xlink="http://www.w3.org/1999/xlink"
   xmlns:sodipodi="http://sodipodi.sourceforge.net/DTD/sodipodi-0.dtd"
   xmlns:inkscape="http://www.inkscape.org/namespaces/inkscape"
   viewBox="0 0 793.7007874015749 1122.5196850393702"
   width="793.7007874015749"
   height="1122.5196850393702"
   version="1.1"
   id="svg63"
   sodipodi:docname="Träger_Injektor_Vorne_Rev.4-DFX.svg"
   inkscape:version="1.0.1 (3bc2e813f5, 2020-09-07)">
  <metadata
     id="metadata67">
    <rdf:RDF>
      <cc:Work
         rdf:about="">
        <dc:format>image/svg+xml</dc:format>
        <dc:type
           rdf:resource="http://purl.org/dc/dcmitype/StillImage" />
        <dc:title></dc:title>
      </cc:Work>
    </rdf:RDF>
  </metadata>
  <sodipodi:namedview
     pagecolor="#ffffff"
     bordercolor="#666666"
     borderopacity="1"
     objecttolerance="10"
     gridtolerance="10"
     guidetolerance="10"
     inkscape:pageopacity="0"
     inkscape:pageshadow="2"
     inkscape:window-width="1280"
     inkscape:window-height="961"
     id="namedview65"
     showgrid="false"
     inkscape:zoom="0.68846553"
     inkscape:cx="396.8504"
     inkscape:cy="340.85383"
     inkscape:window-x="-8"
     inkscape:window-y="46"
     inkscape:window-maximized="1"
     inkscape:current-layer="g59" />
  <defs
     id="defs13">
    <marker
       id="DistanceX"
       orient="auto"
       refX="0.0"
       refY="0.0"
       style="overflow:visible">
      <path
         d="M 3,-3 L -3,3 M 0,-5 L  0,5"
         style="stroke:#000000; stroke-width:0.5"
         id="path2" />
    </marker>
    <pattern
       id="Hatch"
       patternUnits="userSpaceOnUse"
       width="8"
       height="8"
       x="0"
       y="0">
      <path
         d="M8 4 l-4,4"
         stroke="#000000"
         stroke-width="0.25"
         linecap="square"
         id="path5" />
      <path
         d="M6 2 l-4,4"
         stroke="#000000"
         stroke-width="0.25"
         linecap="square"
         id="path7" />
      <path
         d="M4 0 l-4,4"
         stroke="#000000"
         stroke-width="0.25"
         linecap="square"
         id="path9" />
    </pattern>
    <symbol
       id="FILLET" />
  </defs>
  <g
     inkscape:groupmode="layer"
     inkscape:label="0"
     id="g59">
    <path
       d="M 478.88404,658.30987 A 141.73228,141.73228 0 0 0 359.83482,511.10687"
       style="fill:none;stroke:#000000"
       id="path15" />
    <path
       d="m 478.88404,658.30987 a 75.590551,75.590551 0 0 0 3.33943,26.41633"
       style="fill:none;stroke:#000000"
       id="path17" />
    <path
       d="m 191.19444,483.99553 168.64038,27.11134"
       style="fill:none;stroke:#000000"
       id="path19" />
    <path
       d="m 482.22347,684.7262 22.55543,72.20007"
       style="fill:none;stroke:#000000"
       id="path21" />
    <path
       d="m 188.29632,387.52925 a 49.133858,49.133858 0 0 0 2.89812,96.46628"
       style="fill:none;stroke:#000000"
       id="path23" />
    <path
       d="m 504.7789,756.92627 a 37.795276,37.795276 0 0 0 64.87606,13.20494"
       style="fill:none;stroke:#000000"
       id="path25" />
    <path
       d="m 188.29632,387.52925 71.73691,-16.00152"
       style="fill:none;stroke:#000000"
       id="path27" />
    <path
       d="m 606.36756,726.93094 -36.7126,43.20027"
       style="fill:none;stroke:#000000"
       id="path29" />
    <path
       d="M 500.07438,389.68377 A 414.04565,414.04565 0 0 0 260.03323,371.52773"
       style="fill:none;stroke:#000000"
       id="path31" />
    <path
       d="m 606.36756,726.93094 a 37.795276,37.795276 0 0 0 7.27567,-35.74531"
       style="fill:none;stroke:#000000"
       id="path33" />
    <path
       d="m 529.18468,420.83335 a 49.133858,49.133858 0 0 0 -29.1103,-31.14958"
       style="fill:none;stroke:#000000"
       id="path35" />
    <path
       d="m 529.18468,420.83335 84.45855,270.35228"
       style="fill:none;stroke:#000000"
       id="path37" />
    <path
       d="m 514.2603,702.45579 a 63.307087,63.307087 0 0 0 22.3113,48.24036"
       style="fill:none;stroke:#000000"
       id="path39" />
    <path
       d="m 527.48865,702.45579 a 6.614175,6.614175 0 1 0 -13.22835,0"
       style="fill:none;stroke:#000000"
       id="path41" />
    <path
       d="m 527.48865,702.45579 a 50.07874,50.07874 0 0 0 17.64924,38.16029"
       style="fill:none;stroke:#000000"
       id="path43" />
    <path
       d="m 536.5716,750.69615 a 6.614173,6.614173 0 0 0 8.56629,-10.08007"
       style="fill:none;stroke:#000000"
       id="path45" />
    <path
       d="m 425.58456,421.42154 a 12.283465,12.283465 0 1 0 -24.56693,0 12.283465,12.283465 0 1 0 24.56693,0 z"
       style="fill:none;stroke:#000000"
       id="path47" />
    <path
       d="m 211.27673,435.48456 a 12.283465,12.283465 0 1 0 -24.56693,0 12.283465,12.283465 0 1 0 24.56693,0 z"
       style="fill:none;stroke:#000000"
       id="path49" />
    <path
       d="m 584.18156,702.45579 a 6.614175,6.614175 0 1 0 -13.22835,0 6.614175,6.614175 0 1 0 13.22835,0 z"
       style="fill:none;stroke:#000000"
       id="path51" />
    <path
       d="m 488.90026,435.48456 a 6.614175,6.614175 0 1 0 -13.22835,0 6.614175,6.614175 0 1 0 13.22835,0 z"
       style="fill:none;stroke:#000000"
       id="path53" />
    <path
       d="m 312.03881,418.89498 a 6.6141735,6.6141735 0 1 0 -13.22834,0 6.6141735,6.6141735 0 1 0 13.22834,0 z"
       style="fill:none;stroke:#000000"
       id="path55" />
    <use
       xlink:href="#FILLET"
       transform=""
       id="use57" />
  </g>
  <desc
     id="desc61">Träger_Injektor_Vorne_Rev.4-DFX.dxf - scale = 1.000000, origin = (0.000000, 0.000000), method = manual</desc>
</svg>
